<?xml version="1.0" encoding="utf-8"?>
<!-- Generator: Adobe Illustrator 18.1.0, SVG Export Plug-In . SVG Version: 6.00 Build 0)  -->
<svg version="1.2" baseProfile="tiny" id="Layer_1" xmlns="http://www.w3.org/2000/svg" xmlns:xlink="http://www.w3.org/1999/xlink"
	 x="0px" y="0px" viewBox="319 264 154 84" xml:space="preserve">
<g>
	<path fill="#666733" d="M427.8,311.8L427.8,311.8c0.3,0,0.7,0.1,1,0.1C428.5,311.9,428.1,311.9,427.8,311.8z M404.3,298.1
		c-0.2-0.2-0.4-0.3-0.7-0.4C403.9,298,404.1,298.1,404.3,298.1z M447.1,330.7c-0.1-0.9-1.8-2-2.3-2.5c1.7,0.8,0.1,0.1,0.8,0
		c0.6,0.2,0.8,0.7,1.3,0.3c0.6-0.6-1.5-1.2-2.4-1.7c-0.3,0-0.5-0.2-0.4-0.4c0,0.1,0.1,0.3,0.4,0.4c1,0.1,3.3-0.8,1.7-1.3
		c-0.7-0.2-3.7-0.1-3.7-0.8c0.1-0.8,0.1-1.8,0.2-3.1c-0.1-0.1-0.1-0.2,0-0.3c0,0.1,0,0.2,0,0.3c0.3,0.4,1.5,0.6,1.3,0.2
		c-0.6-0.6-1.1-1.3-1.5-2c0.6,0,1,0.1,1.4,0.6c-2.6-3.6-5.5-2.8-9.2-3.4c0,0.1,0.8-1.6,0.4-1.7c-0.5,0-1.8,2-2.4,0.5
		c0.4-0.1,0.9-0.1,1.4,0c-1-0.4-2.8-1.3-3-1.5c-0.7-0.6,0.2-0.8,0.6-1.1c-0.7,0.4-3.5-1.2-3.8-1.2c-1.2-0.2-2-0.4-2-1.2
		c-1.8,0-1.2-0.1-2.4-0.8c-0.2,0.3-0.4,0.6-0.6,0.8c-0.4-1-0.5-0.7-1.3-0.9c0.3-0.2,0.6-0.3,0.8-0.5c-1.7,0.1-0.9-0.8-1.8,0.5
		c-1.4-2.4,0.1-1.2-2-3.3c-1.5-1.5-4.2-1.6-5.5-3.7c-0.3,0.4-0.7,0.8-1,1.2c-1.3-1.8-3.9-0.8-4.3-3.3c0.4,0,0.7,0,1,0.1
		c-1-0.8-2.3-1.6-3.3-2.1c0.4,0.6,0.3,1,0.3,1.2c-0.8-1.1-1.1-1.3-1.6-1.6c0.2,0.2,0.3,0.4,0.4,0.7c-3.4-2.2-8.7-4.4-12.7-2.5
		c0.2-0.4,0.5-0.7,0.7-1c-1.5,0.3-1.1,0.2-2.6,0.2c-0.3,0-1.5,1.3-3.3,0.7c-0.7,1.2-0.6,1.5-2.2,1.9c0.4-0.6,0.4-1,0.6-1.5
		c-2.8,3.9-10.7,1.1-11.8,4.7c-2.4,0-4.7,1.6-6.2,2c-1.1,0.4-4,1.6-6,2.1c-0.2,0.4,0,0.7,0.5,0.8c-2,0.5-3.3,0.8-5.5,1.1
		c-0.4,0.9-0.4,0.8-1.6,2.1c0.4-0.2,0.8-0.2,1.2-0.2c0.5,0.1-1.6,1.6-1.7,1.6c0.4,0.1,0.9,0,1.3,0c0.4,1.6-1.3,3-3.5,2.8
		c0.2-0.4,0.5-0.7,0.8-0.9c-0.7,0.3-4,1.3-4,1.3c-0.6,0.6-0.3,0.8-1.3,1.4c-0.4,0.6,0,0.9-1.8,1.1c0.3,0.1,0.6,0.3,0.8,0.6
		c-1.5,0.3-1.3,0.3-2.9,0.1c0,0-0.3,2.3-0.8,2c1.2,0.9,0.8,0.7,0.2,1.9c0.3,0.7,0.7,1.8,1.1,3.3c0.2-0.4,0.5-0.7,0.8-1
		c0,0,1.3,0.7,1.6,1.2c0.2-0.3,0.4-0.6,0.7-0.8c0.2,0.6,0.4,1.1,0.8,1.6c-1,0.6-2.5,1.3-3.2,1.7c-0.7-0.1-1-0.1-1.4,0
		c0.2,0,0.3,0,0.5,0.1c-0.6,0.4-2,0.7-2.2,1.5c0,0.2,1.4-0.5,1.5-0.6c-0.8,0.7-1.5,1.6-1.7,1.9c0.5-0.4,0.9-0.8,1.5-1.2
		c-0.4,0.6-1,1-0.2,1.3c-0.6,0.4-0.8,0.7-1.1,1.1c0.8,0.3,0.6-0.4,1.1-0.6c0,1.1,0.4,1.9,0.6,3c0.2-0.5,0.5-1,0.8-1.5
		c0.3,0.4,0.3,0.8,0,1.2c0.3-0.3,0.5-0.7,0.7-1.1c0.2,0.4,1.5,1.2,1,1.8c1.5-1.5,4.3,0.6,5.4-2.4c0.2,0.6,0.7,1.1,0.9,1.9
		c0.1-0.9,4.7-3,6.4-2.2c1.2,0.6-0.6,3.6,0,5.1c2,2.8,1.9,7,2.2,9c1.1,0,2.5,0,4.1,0c-0.2-0.6-0.4-1.5-0.4-1.7
		c0-0.4-0.2-2.7-0.2-3.1c0-0.4-0.3-2.8-0.3-3.3c0-0.6,0.3-0.8,0.3-0.8s0.2,0.2,0.2,0.5c0,0.2,1.7,5.9,1.7,6.2c0,0.2,0.1,1.7,0.2,2.3
		c0.7,0,1.5,0,2.3,0c-0.3-0.9-0.9-4.1-1-5c-0.1-1.1-0.5-6.5-0.5-6.5l0.4,1l0.3,2c0,0,0.5,3.4,0.5,4.2c0,0.5,0.8,2.8,1.3,4.4
		c1,0,2.1,0,3.2,0l-0.2-1.1l-0.3-2.1c0,0-0.2-0.6-0.4-0.8c-0.1-0.2-0.1-1.8-0.1-1.8l2,4.2c0,0-0.4,0.4-0.5,0.6c0,0.1,0,0.6,0,1
		c2.4,0,4.9,0,7.6,0c-0.1-0.1-0.1-0.2-0.2-0.2c-0.1-0.2-1-2.6-1.1-3.3c-0.1-0.7-0.5-4-0.5-4l0.4,0.6l0.3,1.2c0,0,0.5,2.1,0.5,2.6
		c0,0.4,1,2.2,1.5,3.1c0.5,0,0.9,0,1.5,0c-0.3-0.4-0.7-1-0.8-1.2c-0.2-0.3-0.9-1.8-0.9-2.1c0-0.4-0.6-2.6-0.6-3s-0.7-2.7-0.8-3.3
		c-0.1-0.6,0.2-0.9,0.2-0.9s0.2,0.2,0.3,0.4s2.5,5.6,2.6,5.8c0.1,0.2,0.5,2.3,0.5,2.6c0,0.1,0,1,0,1.6c10.7,0,22.5,0.1,31.2,0.1
		c0.5-1.6,1.3-3.9,1.3-4.4c0-0.8,0.5-4.2,0.5-4.2l0.3-2l0.4-1c0,0-0.4,5.4-0.5,6.5c-0.1,1-0.8,4.1-1.1,5.1c0.8,0,1.6,0,2.3,0
		c0-0.7,0.1-2.2,0.2-2.3c0-0.2,1.7-5.9,1.7-6.2c0-0.2,0.2-0.5,0.2-0.5s0.3,0.3,0.3,0.8c0,0.6-0.4,3-0.3,3.3s-0.2,2.7-0.2,3.1
		c0,0.2-0.2,1.1-0.5,1.7c1.9,0,3.5,0,4.8,0c-0.1-0.4-0.6-11.5,0.9-9.2c0.3-0.8,0.7-1.4,0.9-2.3c0.8,0.8,0.8,0.9,0.9,2
		c-0.1,0.1,0.6-0.5,0.8-0.8c0-0.1,0-0.2,0-0.3c0.1,0,0.1,0.1,0,0.3c0,0.4,0,1.2,0.3,0.9c0.3-0.3,0.5-0.9,0.7-1.1
		c-0.1,0.5,0,0.9,0.4,1.1c2.2-5.3,4,1,6.3,1c0.6,0-0.2-1.8,0.1-1.9c1.2-0.3,0.2,1.4,1,1.3c0.5-0.8,0.6-1.7,0.4-2.6
		c0-0.2,2.1,1.8,1.8,1.8c0.6-0.1,0.6-2.2,0.7-2.2s1.2,0.6,0.8,0.9c0.5-0.4,0.8-2.3,1.3-2.9c0.1-0.1,0.3,0.8,0.4,0.9
		c0.5,0,0.8-0.4,0.8-0.9c0.4,0.2,0.8,1.1,1.3,0.9c-0.2,0.1,1-2.8,1.3-1.1c0.1-0.5,0.1-1,0-1.5c0.7,0.2,0.4,0.5,0.3-0.6
		C445.9,329.8,447.1,330.9,447.1,330.7z M348.5,327.8l-0.3-0.3l0.6-0.6l0.7-0.2l0.3,0.3L348.5,327.8z M366.6,306.1l1.1-0.4l0.3,0.2
		c0,0-0.8,0.6-1.3,0.7C366.2,306.7,366.6,306.1,366.6,306.1z M359.8,321.5c0.3,0,1.1,0.6,1.4,0.8c0.3,0.2,1.1,1.5,1.4,1.7
		c0.3,0.2,1,0.8,1,0.8l0.1,1.4c0,0-0.8-0.6-1-0.8c-0.2-0.2-0.7-0.7-0.9-0.8s-0.4-0.2-0.5-0.3c-0.2-0.1-0.3-0.6-0.3-0.6l-0.7-0.4
		c0,0,0-0.9,0-1s-2-0.9-2-0.9S359.5,321.5,359.8,321.5z M353.1,330.6c-0.3,0-0.6-0.1-0.6-0.1s0.3-0.4,0.5-0.5
		c0.2-0.1,0.1-0.8,0.1-0.8l0.9,1.2C354.2,330.4,353.4,330.6,353.1,330.6z M355.9,330.1c0,0-0.6-0.6-0.6-0.8c0-0.2,0.1-0.5,0.1-0.5
		l0.4,0.3l0.7,0.7L355.9,330.1z M357,329.2c-0.1,0.2-0.6,0.2-0.6,0.2c0,0,0-0.4-0.6-0.7c-0.6-0.3,0.2-0.6,0.2-0.8
		c0-0.3,0.6-0.2,0.6-0.2l0.4,0.4C357,328.1,357.1,329,357,329.2z M358,327c-0.4,0-1.5,0.6-1.5,0.6l-0.2-0.5c0,0,0.7-0.2,0.7-0.3
		s-0.4-0.1-0.7-0.2c-0.2-0.1-0.5-0.4-0.6-0.4c-0.2,0-0.8,0-0.8,0s-0.3,0.3-0.5,0.3c-0.2,0-0.9-0.4-1-0.6c-0.1-0.2-0.4-0.6-0.4-0.6
		s0-0.6-0.1-0.8s-0.6-0.9-0.6-0.9v-0.8c0,0,0.6,0,0.6-0.1c0-0.2-0.5-0.7-0.6-0.9c0-0.2-0.2-0.4-0.2-0.4s1.3,0,2.6,1s3.2,2.9,3.3,3.2
		c0.1,0.2,0.8,1.9,0.8,1.9S358.5,327.1,358,327z M360.5,328.2c0,0-0.9-1.5-1.5-2.4c-0.6-0.9-1.5-2.1-1.6-2.2c0,0.1-0.1,0.1,0,0
		c0,0,0,0,0,0c0,0,0.1-0.2,0.2-0.3c0.2-0.2,0.4,0,0.6,0.2c0.2,0.2,0.9,0.6,1.2,0.6c0.3,0.1,2.4,2.3,2.4,2.3l2.2,1.8L360.5,328.2z
		 M364.2,323.3c-0.2,0-0.4-0.3-0.6-0.4c-0.2-0.1-0.3-1-0.3-1.3c0-0.3,0.1-0.7,0.4-0.7c0.3,0,0.4,0.3,0.8,0.4c0.4,0.2,1,0.2,1,0.2
		s-0.6,1.2-0.7,1.4C364.8,323,364.5,323.2,364.2,323.3z M366.1,323.7c-0.2,0.1-0.8-0.1-0.8-0.1l-0.2-0.3c0,0,0.6-0.8,0.8-0.9
		c0.2-0.2,0.7-0.3,0.9-0.4s1.2,0,1.2,0s-1.2,0.7-1.4,0.9C366.4,323.1,366.3,323.5,366.1,323.7z M370.1,324.7
		c-1.1-0.1-0.9-0.2-1.4-0.2c-0.4,0-1.3-0.2-1.4-0.3c-0.1-0.1-0.6-0.4-0.6-0.4s1.9-1.1,2-1.2c0.1-0.2,0.6,0.6,0.8,0.8
		C369.7,323.7,370.5,324.7,370.1,324.7z M374.2,342.5c0,0-0.6-0.9-0.7-1.1c0-0.1-0.8-1.9-0.9-2.2c0-0.3-0.7-1.3-0.7-1.3
		s-1.4-2.7-1.3-2.7c0.1,0,0.2-0.1,0.2-0.1s1.1,2.3,1.5,2.7c0.3,0.4,2,3.5,2,3.5L374.2,342.5z M373.7,339.1c-0.2-0.4-0.4-0.9-0.5-1.2
		c-0.1-0.3-0.5-0.9-0.5-1.2c0-0.2,0.7-1.2,0.7-1.2s0.9,0.9,0.9,1.1c0,0.2,0.4,3.6,0.4,3.6S373.9,339.6,373.7,339.1z M372.5,332.2
		c0,0,0.6,1.8,0.6,2.2v0.9C373.1,335,372.5,332.2,372.5,332.2z M375.2,333.7c-0.1-0.2-0.4-1.8-0.4-1.8l0.2-0.4c0,0,0.2,0.9,0.3,1.1
		C375.3,332.9,375.3,334,375.2,333.7z M375.8,326.2c-2.5-0.4-5.3-2.6-6.1-4.3c0.7-0.2,1.3-0.3,2-0.5c0.2,0.3,0.4,0.6,0.6,0.8
		c0.4-0.1,0.8-0.2,1.2-0.4c0.4,0.4,0.5,0.6,0.9,1c0,0,0.5,0.3,0.5,0.3v-0.2c0-0.1-0.1-0.2-0.1-0.2c0.2-0.1,0.4-0.2,0.6-0.2
		c0.2,1.1,0.4,2.3,0.6,3.5C375.9,326.1,375.8,326.1,375.8,326.2C375.8,326.1,375.8,326.2,375.8,326.2z M379.5,328.6
		c-0.2,0-0.8-0.1-1,0c-1.1-2.3-1.1-3.4-1.8-5.2h0.4C378.5,323.3,379.5,327.6,379.5,328.6L379.5,328.6z M416,323.8
		c0.3-0.2,1.1-0.8,1.4-0.8c0.3,0,1.6-0.1,1.6-0.1s-2,0.8-2,0.9c0,0.1,0,1,0,1l-0.7,0.4c0,0-0.1,0.5-0.3,0.6
		c-0.2,0.1-0.4,0.2-0.5,0.3c-0.2,0.1-0.6,0.6-0.9,0.8c-0.2,0.2-1,0.8-1,0.8l0.1-1.4c0,0,0.8-0.6,1-0.8
		C414.9,325.3,415.6,324,416,323.8z M408.4,324c0.1,0.2,2,1.2,2,1.2s-0.5,0.2-0.6,0.4c-0.1,0.1-0.9,0.3-1.4,0.3
		c-0.4,0-0.3,0-1.4,0.2c-0.4,0,0.4-1,0.6-1.2C407.9,324.6,408.4,323.9,408.4,324z M401.9,323.9c0.2,0.1,0.4,0.2,0.6,0.2
		c0,0.1-0.1,0.2-0.1,0.2v0.2c0,0,0.5-0.3,0.5-0.3c0.4-0.4,0.5-0.6,0.9-1c0.4,0.1,0.8,0.2,1.2,0.4c0.2-0.3,0.4-0.6,0.6-0.8
		c0.7,0.2,1.3,0.3,2,0.5c-0.8,1.7-3.6,3.9-6.1,4.3l0,0c-0.1,0-0.1-0.1-0.2-0.2C401.5,326.2,401.7,325.1,401.9,323.9z M395.2,326.2
		l-1.2,1l-0.2-1.8l0.7-0.9l0.3-0.6l1.5-1.5c0,0,0.1-1,0.4-1c0.2,0,2.7,0,2.7,0l-0.4,0.7l0,0.7l1.4-0.9l-1.1,1.2l-2.7,2.3
		L395.2,326.2z M400.6,324.7c-0.7,1.8-0.8,2.9-1.8,5.2c-0.2,0-0.8,0.1-1,0v0c0-1,1-5.2,2.5-5.2L400.6,324.7L400.6,324.7z
		 M398.5,337.8l-0.9-2.8c0,0,0.1-0.5,0.2-0.7c0.1-0.2,0.2-0.2,0.4-0.2c0.2,0,0.7,0.4,0.7,0.4L398.5,337.8z M400.1,344
		c-0.2,0.3-1.2,1.7-1.2,1.7s-0.1-1.9-0.1-2.1c0-0.2,0.4-2.3,0.5-2.6c0.1-0.2,2.5-5.6,2.6-5.8c0.1-0.2,0.3-0.4,0.3-0.4
		s0.3,0.3,0.2,0.9c-0.1,0.6-0.8,2.9-0.8,3.3c0,0.4-0.6,2.7-0.6,3C401.1,342.2,400.3,343.7,400.1,344z M403.9,341.7
		c-0.1,0.7-1,3.1-1.1,3.3c-0.1,0.2-0.5,0.7-0.5,0.7l-0.9,0.1c0,0,1.8-3.2,1.8-3.7c0-0.5,0.5-2.6,0.5-2.6l0.3-1.2l0.4-0.6
		C404.4,337.6,404,341,403.9,341.7z M406.3,333.5c0-0.2,0.9-1.1,0.9-1.1s0.7,1,0.7,1.2c0,0.2-0.4,0.9-0.5,1.2
		c-0.1,0.3-0.4,0.8-0.5,1.3c-0.2,0.4-1,1-1,1S406.3,333.7,406.3,333.5z M406.2,338.2c0,0,1.7-3.1,2-3.5c0.3-0.4,1.5-2.7,1.5-2.7
		s0.1,0.1,0.2,0.1c0.1,0-1.3,2.7-1.3,2.7s-0.6,1-0.7,1.3c0,0.3-0.8,2.1-0.9,2.2c0,0.1-0.7,1.1-0.7,1.1L406.2,338.2z M408.8,338.8
		c-0.1,0.2-0.4,0.8-0.4,0.8l-0.3,2.1l-0.5,2.1l-0.3,0c0,0,0-1.8,0-2c0-0.2-0.5-0.6-0.5-0.6l2-4.2C408.8,337,408.9,338.5,408.8,338.8
		z M409.7,342c0,0,0.2-4.8,0.4-5.3c0.2-0.6,0.7-2.4,0.7-2.4s-0.4,3.6-0.5,4.1C410.3,338.8,409.7,342,409.7,342z M410.9,344.4l-0.2,0
		l0.3-5.5L410.9,344.4z M411.7,327.5c-0.2,0,0,0.8,0,1c0,0.2-0.2,0.5-0.6,0.6c-0.4,0.1-0.6,0.3-1.2,0.4c-0.6,0.1-0.6-0.3-1.1-0.5
		c-0.5-0.2-1.4-0.8-1.4-0.8s2.2-0.6,2.8-0.8c0.5-0.2,1.8-0.5,1.8-0.4C411.9,327.1,411.9,327.4,411.7,327.5z M411.8,325
		c0,0-0.6,0.2-0.8,0.1s-0.3-0.6-0.5-0.8c-0.2-0.2-1.4-0.9-1.4-0.9s1-0.1,1.2,0c0.2,0,0.7,0.2,0.9,0.4c0.2,0.2,0.8,0.9,0.8,0.9
		L411.8,325z M412.3,324.2c-0.1-0.2-0.7-1.4-0.7-1.4s0.6,0,1-0.2c0.4-0.1,0.6-0.4,0.8-0.4s0.4,0.4,0.4,0.7c0,0.3,0,1.2-0.3,1.3
		c-0.2,0.1-0.4,0.4-0.6,0.4C412.7,324.7,412.4,324.4,412.3,324.2z M418.1,327.2c-0.6,1-1.5,2.4-1.5,2.4l-3.6,0.1l2.2-1.8
		c0,0,2.2-2.2,2.4-2.3c0.3-0.1,0.9-0.4,1.2-0.6c0.2-0.2,0.4-0.5,0.6-0.2c0,0.1,0.1,0.2,0.2,0.3l0,0c0,0.1,0,0.1,0,0
		C419.6,325.1,418.7,326.3,418.1,327.2z M424.8,323.2c0,0.2-0.6,0.7-0.6,0.9s0.6,0.1,0.6,0.1v0.8c0,0-0.4,0.7-0.6,0.9
		s-0.1,0.8-0.1,0.8s-0.3,0.4-0.4,0.6c-0.1,0.2-0.8,0.6-1,0.6c-0.2,0-0.5-0.3-0.5-0.3s-0.6,0-0.8,0c-0.2,0-0.4,0.4-0.6,0.4
		c-0.2,0-0.7,0-0.7,0.2c0,0.1,0.7,0.3,0.7,0.3l-0.2,0.5c0,0-1.1-0.6-1.5-0.6c-0.4,0-0.9,0.4-0.9,0.4s0.7-1.6,0.8-1.9
		c0.1-0.2,2-2.2,3.3-3.2c1.4-0.9,2.6-1,2.6-1S424.9,323.1,424.8,323.2z M431.7,313C431.7,313,431.6,313,431.7,313
		C431.6,313,431.7,313,431.7,313z M342.5,327.4c0.4-0.1,0.7-0.2,1-0.2C343.2,327.1,342.8,327.2,342.5,327.4z M346.6,324.7
		c-0.1,0.1-0.1,0.2-0.2,0.3C346.6,324.9,346.7,324.8,346.6,324.7z"/>
</g>
</svg>
