<?xml version="1.0" encoding="utf-8"?>
<!-- Generator: Adobe Illustrator 18.1.0, SVG Export Plug-In . SVG Version: 6.00 Build 0)  -->
<svg version="1.2" baseProfile="tiny" xmlns="http://www.w3.org/2000/svg" xmlns:xlink="http://www.w3.org/1999/xlink" x="0px"
	 y="0px" viewBox="0 0 300 124.7" xml:space="preserve">
<g id="Layer_5">
</g>
<g id="Layer_1" display="none">
	<g display="inline">
		<g>
			<path fill="#FFFFFF" d="M95.3,45.4h-2.4V31.1h3.8l4.3,9l4.3-9h3.7v14.3h-2.4V34.2l-5,9.9h-1.3l-5-9.9V45.4z"/>
			<path fill="#FFFFFF" d="M122.7,31.1v2.3H115v3.8h6.8v2.1H115v3.8h7.9v2.3h-10.3V31.1H122.7z"/>
			<path fill="#FFFFFF" d="M131,33.3v12.1h-2.4V33.3h-4.3v-2.2h11.1v2.2H131z"/>
			<path fill="#FFFFFF" d="M138.5,42.1l-1.4,3.2h-2.6l6.3-14.3h2.6l6.3,14.3h-2.6l-1.4-3.2H138.5z M144.7,39.9l-2.6-5.9l-2.6,5.9
				H144.7z"/>
			<path fill="#FFFFFF" d="M153.7,45.4h-2.4V31.1h3.8l4.3,9l4.3-9h3.7v14.3H165V34.2l-5,9.9h-1.3l-5-9.9V45.4z"/>
			<path fill="#FFFFFF" d="M173,42.1l-1.4,3.2H169l6.3-14.3h2.6l6.3,14.3h-2.6l-1.4-3.2H173z M179.2,39.9l-2.6-5.9l-2.6,5.9H179.2z"
				/>
			<path fill="#FFFFFF" d="M190.1,33.3v12.1h-2.4V33.3h-4.3v-2.2h11.1v2.2H190.1z"/>
			<path fill="#FFFFFF" d="M206.7,31.1v2.3h-7.6v3.8h6.8v2.1h-6.8v3.8h7.9v2.3h-10.3V31.1H206.7z"/>
			<path fill="#FFFFFF" d="M221.1,35.7c0,2.4-1,3.8-3.1,4.5l3.7,5.2h-3.1l-3.4-4.8h-3.2v4.8h-2.4V31.1h5.3c2.2,0,3.7,0.4,4.7,1.1
				C220.6,32.9,221.1,34.1,221.1,35.7z M217.9,37.8c0.5-0.4,0.7-1.1,0.7-2s-0.3-1.6-0.8-1.9c-0.5-0.3-1.4-0.5-2.7-0.5h-3.1v5.1h3
				C216.4,38.4,217.4,38.2,217.9,37.8z"/>
			<path fill="#FFFFFF" d="M224.2,31.1h2.4v14.3h-2.4V31.1z"/>
			<path fill="#FFFFFF" d="M232.2,42.1l-1.4,3.2h-2.6l6.3-14.3h2.6l6.3,14.3h-2.6l-1.4-3.2H232.2z M238.4,39.9l-2.6-5.9l-2.6,5.9
				H238.4z"/>
			<path fill="#FFFFFF" d="M245,45.4V31.1h2.4v12h6.5v2.3H245z"/>
			<path fill="#FFFFFF" d="M260.5,33c-0.7,0-1.3,0.1-1.7,0.4c-0.4,0.3-0.7,0.7-0.7,1.3c0,0.6,0.2,1,0.7,1.3c0.4,0.3,1.4,0.6,2.9,1
				c1.5,0.4,2.6,0.9,3.3,1.5c0.7,0.6,1.1,1.6,1.1,2.8s-0.5,2.3-1.4,3c-0.9,0.8-2.2,1.2-3.7,1.2c-2.2,0-4.2-0.8-5.9-2.3l1.5-1.8
				c1.4,1.3,2.9,1.9,4.5,1.9c0.8,0,1.4-0.2,1.8-0.5c0.5-0.3,0.7-0.8,0.7-1.3c0-0.6-0.2-1-0.6-1.3c-0.4-0.3-1.2-0.6-2.2-0.8
				c-1-0.3-1.8-0.5-2.4-0.7s-1-0.5-1.4-0.8c-0.8-0.6-1.3-1.6-1.3-2.9s0.5-2.3,1.4-3.1c1-0.7,2.1-1.1,3.6-1.1c0.9,0,1.8,0.2,2.7,0.4
				c0.9,0.3,1.7,0.7,2.3,1.3l-1.3,1.8c-0.4-0.4-1-0.7-1.7-0.9C261.9,33.1,261.2,33,260.5,33z"/>
			<path fill="#FFFFFF" d="M101.1,67.7c0.8,0,1.5-0.1,2.1-0.4c0.6-0.3,1.2-0.7,1.9-1.3l1.6,1.6c-1.5,1.7-3.3,2.5-5.5,2.5
				c-2.2,0-3.9-0.7-5.4-2.1c-1.4-1.4-2.1-3.1-2.1-5.3s0.7-3.9,2.2-5.3c1.4-1.4,3.3-2.1,5.5-2.1c2.2,0,4.1,0.8,5.5,2.4l-1.5,1.7
				c-0.7-0.7-1.3-1.1-1.9-1.4c-0.6-0.3-1.3-0.4-2.1-0.4c-1.4,0-2.7,0.5-3.6,1.4c-1,0.9-1.5,2.1-1.5,3.6c0,1.4,0.5,2.7,1.5,3.6
				C98.6,67.2,99.7,67.7,101.1,67.7z"/>
			<path fill="#FFFFFF" d="M118.6,68.3c-1.2,1.2-2.6,1.7-4.4,1.7c-1.7,0-3.2-0.6-4.4-1.7c-1.2-1.2-1.8-2.6-1.8-4.3
				c0-1.7,0.6-3.2,1.8-4.3c1.2-1.2,2.6-1.7,4.4-1.7c1.7,0,3.2,0.6,4.4,1.7c1.2,1.2,1.8,2.6,1.8,4.3
				C120.4,65.7,119.8,67.1,118.6,68.3z M117.2,60.9c-0.8-0.8-1.8-1.2-2.9-1.2c-1.2,0-2.1,0.4-2.9,1.2c-0.8,0.8-1.2,1.8-1.2,3
				c0,1.2,0.4,2.2,1.2,3c0.8,0.8,1.8,1.2,2.9,1.2c1.2,0,2.1-0.4,2.9-1.2c0.8-0.8,1.2-1.8,1.2-3C118.4,62.8,118,61.8,117.2,60.9z"/>
			<path fill="#FFFFFF" d="M124.6,69.9h-2V58.2h3.1l3.5,7.3l3.5-7.3h3.1v11.7h-2v-9.1l-4.1,8.1h-1.1l-4.1-8.1V69.9z"/>
			<path fill="#FFFFFF" d="M140.7,69.9h-2V58.2h3.1l3.5,7.3l3.5-7.3h3.1v11.7h-2v-9.1l-4.1,8.1h-1.1l-4.1-8.1V69.9z"/>
			<path fill="#FFFFFF" d="M163.1,58.2V60h-6.2v3.1h5.6v1.8h-5.6V68h6.4v1.9h-8.4V58.2H163.1z"/>
			<path fill="#FFFFFF" d="M174.9,62c0,1.9-0.8,3.1-2.5,3.6l3.1,4.2h-2.5l-2.8-3.9h-2.6v3.9h-2V58.2h4.3c1.8,0,3.1,0.3,3.8,0.9
				C174.5,59.7,174.9,60.7,174.9,62z M172.3,63.6c0.4-0.3,0.6-0.9,0.6-1.7c0-0.8-0.2-1.3-0.6-1.6c-0.4-0.3-1.1-0.4-2.2-0.4h-2.5v4.2
				h2.5C171.1,64.2,171.9,64,172.3,63.6z"/>
			<path fill="#FFFFFF" d="M182.8,68.1c0.7,0,1.3-0.1,1.8-0.3c0.5-0.2,1-0.6,1.5-1.1l1.3,1.3c-1.2,1.4-2.7,2.1-4.5,2.1
				s-3.2-0.6-4.4-1.7c-1.2-1.1-1.7-2.6-1.7-4.3c0-1.7,0.6-3.2,1.8-4.3c1.2-1.2,2.7-1.7,4.5-1.7c1.8,0,3.3,0.7,4.5,2l-1.3,1.4
				c-0.6-0.5-1.1-0.9-1.6-1.1s-1.1-0.3-1.7-0.3c-1.2,0-2.2,0.4-3,1.1c-0.8,0.8-1.2,1.7-1.2,2.9c0,1.2,0.4,2.2,1.2,3
				C180.7,67.7,181.7,68.1,182.8,68.1z"/>
			<path fill="#FFFFFF" d="M189.5,58.2h2v11.7h-2V58.2z"/>
			<path fill="#FFFFFF" d="M196,67.2l-1.2,2.7h-2.1l5.1-11.7h2.1l5.1,11.7h-2.1l-1.2-2.7H196z M201.1,65.4l-2.1-4.8l-2.1,4.8H201.1z
				"/>
			<path fill="#FFFFFF" d="M206.5,69.9V58.2h2V68h5.3v1.9H206.5z"/>
			<path fill="#FFFFFF" d="M215.7,58.2h2v11.7h-2V58.2z"/>
			<path fill="#FFFFFF" d="M226.6,60H220v-1.8h9.3v1.5l-6.8,8.3V68h6.9v1.8h-9.6v-1.5L226.6,60L226.6,60z"/>
			<path fill="#FFFFFF" d="M233.3,67.2l-1.2,2.7H230l5.1-11.7h2.1l5.1,11.7h-2.1l-1.2-2.7H233.3z M238.3,65.4l-2.1-4.8l-2.1,4.8
				H238.3z"/>
			<path fill="#FFFFFF" d="M247.2,60v9.9h-2V60h-3.5v-1.8h9.1V60H247.2z"/>
			<path fill="#FFFFFF" d="M252.6,58.2h2v11.7h-2V58.2z"/>
			<path fill="#FFFFFF" d="M267.3,68.3c-1.2,1.2-2.6,1.7-4.4,1.7c-1.7,0-3.2-0.6-4.4-1.7c-1.2-1.2-1.8-2.6-1.8-4.3
				c0-1.7,0.6-3.2,1.8-4.3c1.2-1.2,2.6-1.7,4.4-1.7c1.7,0,3.2,0.6,4.4,1.7c1.2,1.2,1.8,2.6,1.8,4.3
				C269.1,65.7,268.5,67.1,267.3,68.3z M265.9,60.9c-0.8-0.8-1.8-1.2-2.9-1.2c-1.2,0-2.1,0.4-2.9,1.2c-0.8,0.8-1.2,1.8-1.2,3
				c0,1.2,0.4,2.2,1.2,3c0.8,0.8,1.8,1.2,2.9,1.2c1.2,0,2.1-0.4,2.9-1.2c0.8-0.8,1.2-1.8,1.2-3C267.1,62.8,266.7,61.8,265.9,60.9z"
				/>
			<path fill="#FFFFFF" d="M280.1,58.2h2v11.7h-2.1l-6.6-8.5v8.5h-2V58.2h2l6.8,8.7V58.2z"/>
			<path fill="#FFFFFF" d="M101.1,92.2c0.8,0,1.5-0.1,2.1-0.4c0.6-0.3,1.2-0.7,1.9-1.3l1.6,1.6c-1.5,1.7-3.3,2.5-5.5,2.5
				c-2.2,0-3.9-0.7-5.4-2.1c-1.4-1.4-2.1-3.1-2.1-5.3s0.7-3.9,2.2-5.3c1.4-1.4,3.3-2.1,5.5-2.1c2.2,0,4.1,0.8,5.5,2.4l-1.5,1.7
				c-0.7-0.7-1.3-1.1-1.9-1.4c-0.6-0.3-1.3-0.4-2.1-0.4c-1.4,0-2.7,0.5-3.6,1.4c-1,0.9-1.5,2.1-1.5,3.6c0,1.4,0.5,2.7,1.5,3.6
				C98.6,91.7,99.7,92.2,101.1,92.2z"/>
			<path fill="#FFFFFF" d="M117.1,82.7v1.9h-6.2v3.1h5.6v1.8h-5.6v3.1h6.4v1.9h-8.4V82.7H117.1z"/>
			<path fill="#FFFFFF" d="M128.3,82.7h2v11.7h-2.1l-6.6-8.5v8.5h-2V82.7h2l6.8,8.7V82.7z"/>
			<path fill="#FFFFFF" d="M137.6,84.5v9.9h-2v-9.9h-3.5v-1.8h9.1v1.8H137.6z"/>
			<path fill="#FFFFFF" d="M151.2,82.7v1.9H145v3.1h5.6v1.8H145v3.1h6.4v1.9H143V82.7H151.2z"/>
			<path fill="#FFFFFF" d="M163,86.5c0,1.9-0.8,3.1-2.5,3.6l3.1,4.2H161l-2.8-3.9h-2.6v3.9h-2V82.7h4.3c1.8,0,3.1,0.3,3.8,0.9
				C162.6,84.2,163,85.2,163,86.5z M160.4,88.1c0.4-0.3,0.6-0.9,0.6-1.7c0-0.8-0.2-1.3-0.6-1.6c-0.4-0.3-1.1-0.4-2.2-0.4h-2.5v4.2
				h2.5C159.2,88.6,160,88.5,160.4,88.1z"/>
		</g>
		<path fill="#FFFFFF" d="M37.8,79.8h-5.7v-34H41l10.3,21.3l10.3-21.3h8.9v34h-5.7V53.3L52.9,76.9h-3.2L37.8,53.3V79.8z M81.5,31.2
			H21h-4.6v4.6V90v4.6H21h10.7v-4.6H21.1V35.8h60.4v54.3H70.8v4.6h10.7h4.6V90V35.7v-4.6H81.5z"/>
	</g>
</g>
<g id="Layer_2">
	<g>
		<path fill-rule="evenodd" fill="#FFFFFF" d="M115.3,70.8v0.4c0,1.6,2.2,3.3,4.1,3.3h23.2c2.2,0,4.4-1.2,5.1-2.7
			c0.8-1.7,1.5-3.8,2.2-5.6c0.5-1.3,4.4-10.7,4.4-11.3v-0.1c0-1.1-0.9-2.2-1.6-2.7c-0.9-0.7-1.8-0.9-3.4-0.9h-21.8
			c-2.4,0-4.5,0.9-5.5,2.4c-0.5,0.8-1.9,4.5-2.3,5.6C119.1,60.9,115.3,70.2,115.3,70.8L115.3,70.8z M128.2,68.7
			c0-0.8,2.5-6.7,2.9-7.8c0.5-1.2,1-2.6,1.5-3.8c0.5-1.3,1.6-2,3.3-2h3.1c0.9,0,2.2,0.9,2.2,1.8v0.8c0,0.5-2.5,6.2-2.9,7.3
			c-0.4,1.2-0.9,2.5-1.4,3.7c-0.5,1.2-1.2,2.2-2.8,2.2h-3.6c-1.1,0-2.3-0.8-2.3-1.9V68.7z"/>
		<path fill-rule="evenodd" fill="#FFFFFF" d="M80,74.6l11.9,0c0.3-1.2,1.4-3.7,1.9-5c0.2-0.6,1.7-4.8,2.1-4.8l8.2,0l-3.9,9.7
			l12.1,0l9.1-23.2l-11.8,0l-3.8,9.7l-8.6,0l3.9-9.8l-11.9,0L80,74.6z"/>
		<path fill-rule="evenodd" fill="#FFFFFF" d="M56.8,51.6c-0.7,0.5-1.5,0.5-2.3,1.2c-0.8,0.7-1,1.1-1.4,2.1c-0.7,1.7-1.3,3.4-2,5.1
			c-0.5,1.5-3.9,9.3-3.9,10.3v0.8c0,1.8,2.4,3.3,4.4,3.3h22c2.1,0,4.2-0.7,5.2-1.8c0.7-0.8,0.8-1.3,1.2-2.3c0.6-1.3,1.1-2.8,1.6-4.2
			h-12c-0.4,1-0.8,2-1.3,2.9c-0.2,0.3-0.3,0.6-0.4,0.7c-0.4,0.4-1.3,1-2,1h-3.8c-1.1,0-2.3-0.9-2.3-1.9c0-1,2.5-6.6,3-7.8
			c0.5-1.3,1.1-2.6,1.6-3.9c0.4-1.3,1.4-2.2,3.2-2.2h3.1c1.3,0,2.5,0.8,2.5,2.1v0.3c0,0.4-0.5,1.3-0.7,2.2h12.1
			c0.3-0.9,1.3-3.6,1.3-4.3v-0.7c0-0.7-1-2-1.5-2.4c-0.6-0.5-1.7-1-2.9-1L60,51.2L56.8,51.6z"/>
		<path fill-rule="evenodd" fill="#FFFFFF" d="M18.3,74.6l25.9,0l1.5-3.8l-13.8,0l2.4-6l13.8,0l1.4-3.7H35.7
			c0.2-0.9,0.9-2.2,1.2-3.1c0.1-0.4,1.1-3,1.4-3l13.6,0l1.4-3.7l-25.8,0L18.3,74.6z"/>
		<path fill-rule="evenodd" fill="#FFFFFF" d="M155.5,55.4H173c1,0,2.1,1,2.1,2.1v0.1c0,1-2.2,5.8-2.7,7.1c-0.4,1.2-1,2.5-1.5,3.7
			c-0.5,1.2-1.2,2.4-2.8,2.4l-6.4,0l4.9-12.4l-12.1,0l-6.4,16.1c5,0,10.1,0,15.1,0c4.2,0,10.6,0.4,14.3-0.2c2.1-0.3,3.7-1.4,4.4-3.2
			c0.7-1.8,1.4-3.6,2.1-5.4c0.5-1.3,4.2-10.2,4.2-10.9v-0.1c0-0.9-1-2.2-1.6-2.6c-0.9-0.6-1.8-0.9-3.3-0.9h-30.3
			C154.2,51.5,155.9,53.7,155.5,55.4z"/>
		<path fill-rule="evenodd" fill="#FFFFFF" d="M215.1,74.5l7.3,0l5.1-13.2l8.4,13.2h9.5c0.4,0,2.2-5,2.5-5.7c0.8-1.8,1.5-4,2.3-5.9
			c0.8-1.8,1.6-3.9,2.3-5.8c0.4-0.9,2.2-5.3,2.3-5.9l-7.8,0l-5.1,12.8c-0.6-0.2-7.9-12.8-8.4-12.8l-9.3,0L215.1,74.5z"/>
		<path fill-rule="evenodd" fill="#FFFFFF" d="M247.2,74.6l25.9,0l1.5-3.8h-13.8c0.2-0.8,0.9-2.3,1.2-3.1c0.2-0.5,1-2.9,1.4-2.9
			l13.6,0l1.4-3.7h-13.7c0.2-0.8,0.9-2.2,1.2-3c0.2-0.5,1-3,1.3-3l13.6,0l1.4-3.7l-25.8,0L247.2,74.6z"/>
		<path fill-rule="evenodd" fill="#FFFFFF" d="M189.2,54.3c1.1,1.8,2,3.6,3,5.5c1.2,2.2,3.1,5.4,3.1,5.7c0,0-3.3,8.6-3.6,9.1h12.4
			c0-0.4,2.3-6.4,2.6-7.2c0.7-1.7,0.4-2,1.8-3.1c0.1-0.1,0.2-0.2,0.4-0.3c0.8-0.6,1.4-1.3,2.3-1.9l12.5-10.9h-10.2l-10.6,8.9
			l-4.5-8.9h-12.1C187.6,51.7,188.3,52.8,189.2,54.3z"/>
	</g>
</g>
<g id="Layer_3" display="none">
	<polygon display="inline" fill="#FFFFFF" points="16.5,49.3 25.4,49.3 25.4,62.1 47,49.3 59.1,49.3 39.4,60.5 60.4,77 48.4,77 
		32.5,64.2 25.4,68.4 25.4,77 16.5,77 	"/>
	<polygon display="inline" fill="#FFFFFF" points="79.5,66.4 61.1,49.3 71.9,49.3 84,61.6 96,49.3 106.9,49.3 88.4,66.4 88.4,77 
		79.5,77 	"/>
	<polygon display="inline" fill="#FFFFFF" points="111,49.3 122.3,49.3 135.5,63.6 148.5,49.3 159.7,49.3 159.7,77 152.3,77 
		152.6,54.1 152.5,54.1 135.4,71.7 118.2,54.1 118.1,54.1 118.4,77 111,77 	"/>
	<g display="inline">
		<polygon fill="#FFFFFF" points="174.7,65 193.8,65 193.8,60.7 165.8,60.7 165.8,77 203,77 203,72 174.7,72 		"/>
		<rect x="218.2" y="60.7" fill="#FFFFFF" width="8.9" height="16.3"/>
	</g>
	<path display="inline" fill="#FFFFFF" d="M265.6,49.3h-10L237.6,77h9.1l4.2-6.9h18.9l4.2,6.9h9.4L265.6,49.3z M253.5,65.8l7-11.7
		l6.9,11.7H253.5z"/>
	<g display="inline">
		<path fill="#FFFFFF" d="M271.7,49.7h-1.3v2.8h-0.5v-2.8h-1.3v-0.3h3.1V49.7z M276.5,52.5h-0.5v-2.8h0l-1.4,2.8h-0.3l-1.4-2.8h0
			v2.8h-0.5v-3.1h0.9l1.1,2.3h0l1.1-2.3h0.9V52.5z"/>
	</g>
	<rect x="165.2" y="49.3" display="inline" fill="#FFFFFF" width="80.1" height="6.9"/>
</g>
<g id="Layer_4" display="none">
	<g id="_x34_SHEjF.tif" display="inline">
		<g>
			<path fill="#FFFFFF" d="M49.9,42.2c0,4.1,0,8.3,0,12.4c0,1.6,0,3.3,0,4.9c0,1.1,0,1-1,1.1c-1.2,0.1-2.1-0.2-3.1-1
				c-2.2-2-4.4-3.9-6.7-5.8c-1.9-1.7-3.8-3.3-5.8-5c-0.1-0.1-0.2-0.3-0.4-0.2c-0.2,0.1-0.1,0.3-0.1,0.5c0,3.1,0,6.2,0,9.4
				c0,0.5,0,1,0,1.5c0,0.5-0.1,0.8-0.7,0.8c-0.8,0-1.6,0-2.5,0c-0.4,0-0.7-0.2-0.6-0.6c0-0.3,0-0.5,0-0.8c0-5.7,0-11.3,0-17
				c1,0,2,0,3,0c0.7,0.9,1.6,1.5,2.5,2.2c3.6,3.1,7.3,6.2,10.9,9.3c0.2,0.2,0.5,0.5,0.7,0.4c0.3-0.1,0.1-0.5,0.1-0.8
				c0-3.7,0-7.4,0-11.1C47.5,42.2,48.7,42.2,49.9,42.2z"/>
			<path fill="#FFFFFF" d="M160.2,42.2c0,0.8,0,1.6,0,2.5c0,0.7-0.1,0.8-0.8,0.8c-1.5,0-2.9,0-4.4,0c-2.6,0-5.3,0-7.9,0
				c-0.9,0-0.9,0-0.9,0.9c0,0.7,0,1.5,0,2.2c0,0.9,0,0.9,0.9,0.9c1.9,0,3.8,0,5.8,0c1.6,0,1.5-0.1,1.5,1.5c0,2,0.3,1.7-1.7,1.7
				c-1.9,0-3.7,0-5.6,0c-0.8,0-0.9,0-0.9,0.8c0,1,0,2,0,2.9c0,0.7,0,0.7,0.8,0.7c2.1,0,4.3,0,6.4,0c2,0,4,0,6,0c1,0,1,0,1,1.1
				c0,0.6,0,1.1,0,1.7c0,0.5-0.2,0.7-0.7,0.7c-0.2,0-0.4,0-0.6,0c-5.3,0-10.6,0-15.9,0c-0.2,0-0.4,0-0.7,0c-0.4,0-0.6-0.2-0.6-0.6
				c0-0.1,0-0.3,0-0.4c0-5.8,0-11.6,0-17.4C148.1,42.2,154.1,42.2,160.2,42.2z"/>
			<path fill="#FFFFFF" d="M95.3,42.2c0,0.8,0,1.6,0,2.5c0,0.7-0.1,0.8-0.8,0.8c-1.3,0-2.6,0-3.9,0c-2.7,0-5.4,0-8.1,0
				c-1.1,0-1.1,0-1.1,1.1c0,0.6,0,1.1,0,1.7c0,1.2,0,1.2,1.1,1.2c1.9,0,3.7,0,5.6,0c0.2,0,0.4,0,0.6,0c0.5,0,0.7,0.2,0.7,0.7
				c0,0.5,0,1.1,0,1.6c0,0.8,0,0.9-0.9,0.9c-1.5,0-3.1,0-4.6,0c-0.6,0-1.2,0-1.8,0c-0.5,0-0.7,0.1-0.7,0.6c0,1.1,0,2.2,0,3.3
				c0,0.4,0.2,0.6,0.6,0.6c0.3,0,0.5,0,0.8,0c3.8,0,7.6,0,11.4,0c0.3,0,0.5,0,0.8,0c0.4,0,0.5,0.2,0.5,0.5c0,0.8,0,1.6,0,2.4
				c0,0.3-0.2,0.5-0.5,0.5c-0.2,0-0.4,0-0.7,0c-5.3,0-10.5,0-15.8,0c-0.2,0-0.4,0-0.6,0c-0.5,0-0.7-0.2-0.7-0.7c0-0.1,0-0.2,0-0.3
				c0-5.7,0-11.3,0-17c0-0.1,0-0.3,0-0.4C83.3,42.2,89.3,42.2,95.3,42.2z"/>
			<path fill="#FFFFFF" d="M181.2,42.2c0.2,0.3,0.6,0.2,0.9,0.3c0.9,0.3,1.4,0.8,1.7,1.6c0.4,1.2,0.3,2.4,0.3,3.7
				c0,0.3-0.2,0.5-0.5,0.5c-1,0-2.1,0-3.1,0c-0.4,0-0.6-0.2-0.5-0.6c0-0.5,0-0.9,0-1.4c0-0.5-0.2-0.7-0.7-0.7c-0.9,0-1.7,0-2.6,0
				c-2.3,0-4.7,0-7,0c-0.9,0-0.9,0-0.9,0.9c0,3.2,0,6.4,0,9.6c0,0.9,0.1,1,1,1c3.1,0,6.2,0,9.3,0c0.9,0,0.9,0,0.9-0.9
				c0-0.5,0-0.9,0-1.4c0-0.4,0.1-0.7,0.6-0.7c1,0,2,0,3,0c0.4,0,0.6,0.2,0.6,0.6c0,1,0,2.1-0.1,3.1c-0.3,2.1-1.5,2.5-3.1,2.7
				c-0.3,0-0.6,0-0.9,0c-3.8,0-7.6,0-11.4,0c-0.1,0-0.2,0-0.3,0c-2.4-0.1-3.4-1.1-3.5-3.5c0-1.1,0-2.1,0-3.2c0-2.5,0-5,0-7.6
				c0-0.3,0-0.6,0-0.9c0.1-1.4,0.6-2.6,2.1-3c0.1,0,0.2-0.1,0.3-0.2C171.9,42.2,176.5,42.2,181.2,42.2z"/>
			<path fill="#FFFFFF" d="M228.5,42.2c0,4.5,0,9,0,13.5c0,0.7-0.1,1.3-0.1,2c-0.3,2.2-1.4,2.7-3.1,2.9c-0.2,0-0.3,0-0.5,0
				c-4.2,0-8.4,0-12.6,0c-0.2,0-0.3,0-0.5,0c-2.2-0.3-2.9-1-3.1-2.8c-0.1-0.5-0.1-1.1-0.1-1.6c0-4.7,0-9.3,0-14c1.4,0,2.8,0,4.2,0
				c0,4.7,0,9.4,0,14.1c0,0.1,0,0.3,0,0.4c0,0.3,0.2,0.5,0.5,0.5c0.2,0,0.4,0,0.6,0c3.2,0,6.4,0,9.6,0c0.2,0,0.4,0,0.6,0
				c0.3,0,0.5-0.2,0.5-0.5c0-0.3,0-0.6,0-0.9c0-4.5,0-9.1,0-13.6C225.7,42.2,227.1,42.2,228.5,42.2z"/>
			<path fill="#FFFFFF" d="M245.9,42.2c3.2,5.7,6.4,11.5,9.5,17.2c0.7,1.2,0.6,1.2-0.7,1.2c-0.8,0-1.6,0-2.4,0
				c-0.8,0.1-1.1-0.2-1.4-0.9c-0.4-0.9-0.9-1.7-1.3-2.5c-0.2-0.4-0.5-0.6-1-0.6c-3.3,0-6.6,0-9.8,0c-0.5,0-0.8,0.2-1,0.7
				c-0.5,0.9-1,1.8-1.4,2.8c-0.2,0.4-0.5,0.6-1,0.6c-0.9,0-1.8,0-2.7,0c-0.7,0-0.7,0-0.4-0.6c0.7-1.3,1.4-2.7,2.1-4
				c1.7-3.1,3.4-6.2,5.1-9.3c0.8-1.5,1.6-3,2.4-4.5C243.3,42.2,244.6,42.2,245.9,42.2z M243.7,53.2c1,0,2.1,0,3.1,0
				c0.7,0,0.7-0.1,0.4-0.6c-1.1-2.2-2.2-4.3-3.3-6.5c-0.2-0.4-0.3-0.4-0.5,0c-1.1,2.1-2.1,4.2-3.1,6.3c-0.3,0.6-0.3,0.7,0.4,0.7
				C241.7,53.2,242.7,53.2,243.7,53.2z"/>
			<path fill="#FFFFFF" d="M276.9,60.7c-5.3,0-10.6,0-16,0c-0.3,0-0.5,0-0.8,0c-0.5,0-0.7-0.2-0.7-0.7c0-0.2,0-0.3,0-0.5
				c0-5.4,0-10.8,0-16.2c0-0.2,0-0.4,0-0.6c0-0.3,0.2-0.5,0.5-0.5c1,0,2.1,0,3.1,0c0.3,0,0.5,0.2,0.5,0.5c0,0.3,0,0.5,0,0.8
				c0,3.9,0,7.9,0,11.8c0,0.2,0,0.4,0,0.6c0,1.3,0,1.3,1.2,1.3c1.9,0,3.8,0,5.8,0c2.1,0,4.2,0,6.2,0
				C276.9,58.5,276.9,59.6,276.9,60.7z"/>
			<path fill="#FFFFFF" d="M125.2,42.2c0,4.7,0,9.4,0,14.1c0,0.8,0,0.9,0.9,0.9c3.7,0,7.4,0,11.1,0c1.2,0,1.2,0,1.2,1.2
				c0,0.5,0,1.1,0,1.6c0,0.4-0.2,0.6-0.6,0.6c-0.2,0-0.4,0-0.7,0c-5,0-10,0-14.9,0c-0.2,0-0.3,0-0.5,0c-0.5,0-0.8-0.2-0.7-0.7
				c0-0.1,0-0.2,0-0.3c0-5.8,0-11.6,0-17.4C122.4,42.2,123.8,42.2,125.2,42.2z"/>
			<path fill="#FFFFFF" d="M104.2,42.2c0,4.5,0,9.1,0,13.6c0,0.3,0,0.6,0,0.9c0,0.3,0.2,0.5,0.5,0.5c0.3,0,0.5,0,0.8,0
				c3.6,0,7.1,0,10.7,0c0.3,0,0.5,0,0.8,0c0.3,0,0.5,0.1,0.5,0.5c0,0.8,0,1.6,0,2.5c0,0.3-0.2,0.5-0.5,0.5c-0.2,0-0.4,0-0.7,0
				c-5,0-10.1,0-15.1,0c-0.2,0-0.4,0-0.6,0c-0.4,0-0.6-0.2-0.6-0.6c0-0.3,0-0.5,0-0.8c0-5.7,0-11.4,0-17
				C101.4,42.2,102.8,42.2,104.2,42.2z"/>
			<path fill="#FFFFFF" d="M205,42.2c0,0.7,0,1.4,0,2.2c0,1.1,0,1.1-1,1.1c-1.5,0-3,0-4.4,0c-0.2,0-0.4,0-0.7,0
				c-0.4,0-0.6,0.2-0.7,0.6c0,0.3,0,0.5,0,0.8c0,4.2,0,8.3,0,12.5c0,0.3,0,0.5,0,0.8c0,0.3-0.2,0.5-0.5,0.5c-1,0-2,0-2.9,0
				c-0.3,0-0.5-0.2-0.5-0.5c0-0.3,0-0.5,0-0.8c0-4.2,0-8.3,0-12.5c0-0.3,0-0.5,0-0.8c0-0.4-0.2-0.6-0.7-0.6c-0.7,0-1.4,0-2.1,0
				c-1,0-2.1,0-3.1,0c-0.9,0-0.9,0-0.9-1c0-0.8,0-1.5,0-2.3C193.3,42.2,199.2,42.2,205,42.2z"/>
			<path fill="#FFFFFF" d="M72.4,42.2c0,0.8,0,1.5,0,2.3c0,0.9,0,1-0.9,1c-1.5,0-3,0-4.4,0c-0.2,0-0.4,0-0.6,0
				c-0.8,0-0.8,0.1-0.9,0.9c0,0.2,0,0.4,0,0.7c0,4.1,0,8.2,0,12.3c0,0.3,0,0.5,0,0.8c0,0.3-0.2,0.5-0.5,0.5c-1,0-2,0-2.9,0
				c-0.4,0-0.6-0.2-0.5-0.6c0-0.3,0-0.5,0-0.8c0-4.1,0-8.3,0-12.4c0-0.3,0-0.5,0-0.8c0-0.4-0.2-0.6-0.6-0.6c-0.7,0-1.4,0-2.2,0
				c-1,0-2,0-3,0c-0.9,0-0.9,0-0.9-1c0-0.8,0-1.5,0-2.3C60.7,42.2,66.5,42.2,72.4,42.2z"/>
			<path fill="#FFFFFF" d="M22.6,42.2c0,5.6,0,11.2,0,16.8c0,1.7,0.1,1.5-1.6,1.6c-0.7,0-1.4,0-2.2,0c0-6,0-11.9,0-17.9
				c0-0.4,0.1-0.5,0.5-0.5C20.4,42.2,21.5,42.2,22.6,42.2z"/>
			<path fill="#FFFFFF" d="M165.6,79.1c0-2.8,0-5.6,0-8.4c0-0.9,0-0.9,0.9-0.9c4.1,0,8.3,0,12.4,0c2,0,3.1,1,3.1,3
				c0.1,1.8,0.1,3.6,0,5.4c-0.1,2-1.2,2.9-3.1,3c-0.7,0-1.3,0-2,0c-0.1,0-0.3,0-0.4,0.1c-0.1,0.2,0.1,0.3,0.2,0.4
				c1.8,1.8,3.5,3.5,5.3,5.2c0.4,0.4,0.8,0.8,1.2,1.2c0.2,0.2,0.1,0.3-0.1,0.3c-1.1,0-2.1,0-3.2,0c-0.4,0-0.5-0.3-0.8-0.5
				c-1.7-1.8-3.4-3.7-5-5.6c-0.7-0.9-1.5-1.3-2.6-1.2c-0.8,0.1-1.6,0-2.5,0c-0.7,0-0.7,0-0.7,0.7c0,1.8,0,3.6,0,5.4
				c0,0.2,0,0.4,0,0.7c0,0.3-0.1,0.5-0.5,0.5c-0.6,0-1.1,0-1.7,0c-0.4,0-0.5-0.2-0.5-0.6c0-0.7,0-1.4,0-2.2
				C165.6,83.5,165.6,81.3,165.6,79.1z M173.3,78.7c1.4,0,2.8,0,4.3,0c1.2,0,1.6-0.4,1.7-1.6c0-1.1,0-2.2,0-3.3
				c0-1.1-0.5-1.6-1.6-1.6c-2.9,0-5.8,0-8.7,0c-0.5,0-0.7,0.2-0.7,0.7c0,1.7,0,3.5,0,5.2c0,0.6,0.2,0.7,0.7,0.7
				C170.4,78.7,171.9,78.7,173.3,78.7z"/>
			<path fill="#FFFFFF" d="M217.2,88.4c-1.6,0-3.3,0-4.9,0c-2.7,0-3.4-1.1-3.5-3.5c-0.1-1.5-0.4-1.4,1.4-1.4c0.2,0,0.3,0,0.5,0
				c0.4,0,0.6,0.1,0.6,0.6c0,0.3,0,0.6,0,0.9c0,0.9,0,0.9,0.9,0.9c3.4,0,6.8,0,10.2,0c0.9,0,0.9,0,0.9-1c0-1.3,0-2.6,0-3.9
				c0-0.8,0-0.8-0.8-0.8c-3,0-6,0-9,0c-0.6,0-1.2,0-1.8-0.1c-1.2-0.2-1.9-0.9-2.1-2.1c-0.3-2-0.3-4,0-5.9c0.2-1.4,1.1-2.1,2.7-2.2
				c0.6,0,1.2,0,1.8,0c2.6,0,5.2,0,7.8,0c2.7,0,3.6,1.2,3.6,3.8c0,0.4-0.1,0.6-0.5,0.6c-0.1,0-0.3,0-0.4,0c-1.3,0-1.3,0-1.4-1.3
				c0-0.5-0.2-0.6-0.6-0.6c-3.4,0-6.7,0-10.1,0c-0.5,0-0.6,0.2-0.6,0.7c0,1.3,0,2.5,0,3.8c0,0.8,0,0.8,0.8,0.8c3.2,0,6.4,0,9.6,0
				c0.5,0,0.9,0.1,1.4,0.2c1.1,0.2,1.6,0.9,1.9,1.9c0.1,0.3,0.2,0.7,0.2,1c0,1.8,0.2,3.6-0.1,5.4c-0.3,1.6-1,2.3-2.7,2.4
				C221,88.4,219.1,88.4,217.2,88.4C217.2,88.4,217.2,88.4,217.2,88.4z"/>
			<path fill="#FFFFFF" d="M77.9,79.1c0-2.8,0-5.6,0-8.4c0-0.9,0-0.9,0.9-0.9c4.6,0,9.1,0,13.7,0c0.9,0,0.9,0,0.9,0.9
				c0,1.6,0,1.6-1.6,1.6c-3.4,0-6.8,0-10.2,0c-0.9,0-0.9,0-0.9,0.9c0,1.2,0,2.3,0,3.5c0,0.7,0,0.7,0.7,0.7c2,0,4,0,6.1,0
				c0.2,0,0.4,0,0.7,0c0.2,0,0.4,0.1,0.4,0.3c0,0.1,0,0.2,0,0.3c0.1,1.9,0.1,1.9-1.8,1.9c-1.8,0-3.5,0-5.3,0c-0.7,0-0.8,0-0.8,0.7
				c0,1.4,0,2.9,0,4.3c0,0.8,0,0.8,0.9,0.8c3.6,0,7.2,0,10.9,0c1.3,0,1.1-0.2,1.1,1.2c0,1.4,0,1.4-1.3,1.4c-4.4,0-8.8,0-13.1,0
				c-0.2,0-0.4,0-0.7,0c-0.4,0-0.5-0.2-0.5-0.5c0-0.2,0-0.4,0-0.7C77.9,84.5,77.9,81.8,77.9,79.1z"/>
			<path fill="#FFFFFF" d="M101,73.6c0.2,4.6,0.1,9.1,0.1,13.6c0,0.2,0,0.4,0,0.7c0,0.3-0.1,0.5-0.4,0.5c-0.5,0-1.1,0-1.6,0
				c-0.3,0-0.5-0.1-0.4-0.5c0-0.2,0-0.4,0-0.6c0-5.5,0-11,0-16.5c0-0.2,0-0.4,0-0.6c0-0.3,0.1-0.5,0.4-0.5c0.8,0,1.4,0.1,2,0.7
				c3.7,3.9,7.5,7.8,11.3,11.7c0.5,0.5,1,1.2,1.4,1.8c0.1,0.1,0.2,0.3,0.3,0.2c0.2-0.1,0.1-0.3,0.1-0.4c-0.4-4.4-0.1-8.8-0.2-13.1
				c0-0.1,0-0.2,0-0.3c-0.1-0.4,0.1-0.6,0.6-0.6c1.9-0.1,1.9-0.1,1.9,1.8c0,5.3,0,10.5,0,15.8c0,1,0,1-1,1c-0.4,0-0.7-0.2-1-0.5
				c-3.8-4-7.5-7.9-11.3-11.8C102.5,75.3,101.7,74.6,101,73.6z"/>
			<path fill="#FFFFFF" d="M188.4,79.1c0-2.8,0-5.7,0-8.5c0-0.8,0-0.8,0.8-0.8c4.7,0,9.3,0,14,0c0.7,0,0.7,0,0.7,0.7
				c0,0.6,0.2,1.3-0.1,1.6c-0.4,0.4-1.1,0.1-1.6,0.1c-3.4,0-6.7,0-10.1,0c-0.9,0-0.9,0-0.9,0.9c0,1.2,0,2.3,0,3.5
				c0,0.7,0,0.7,0.7,0.7c2,0,4.1,0,6.1,0c0.9,0,0.9,0,0.9,0.9c0,1.8,0.2,1.5-1.5,1.6c-1.8,0-3.7,0-5.5,0c-0.8,0-0.8,0-0.8,0.8
				c0,1.5,0,2.9,0,4.4c0,0.8,0,0.8,0.8,0.8c3.7,0,7.3,0,11,0c0.3,0,0.5,0,0.8,0c0.3,0,0.4,0.1,0.4,0.4c0,0.6,0,1.1,0,1.7
				c0,0.3-0.1,0.4-0.4,0.4c-0.2,0-0.4,0-0.7,0c-4.5,0-9,0-13.5,0c-0.1,0-0.3,0-0.4,0c-0.6,0.1-0.7-0.2-0.7-0.7c0-2.3,0-4.7,0-7
				C188.4,80.2,188.4,79.6,188.4,79.1z"/>
			<path fill="#FFFFFF" d="M145.1,77.8c0,2.4,0,4.9,0,7.3c0,0.8,0,0.8,0.8,0.8c3.4,0,6.7,0,10.1,0c0.8,0,0.8,0,0.8-0.8
				c0-4.7,0-9.5,0-14.2c0-1.1-0.1-1,1-1c0.3,0,0.7,0,1,0c0.5-0.1,0.6,0.2,0.6,0.7c0,1.7,0,3.4,0,5.1c0,2.9,0,5.9,0,8.8
				c0,0.6-0.1,1.2-0.2,1.8c-0.3,1.4-1,2.1-2.4,2.2c-0.4,0-0.8,0-1.1,0c-3.2,0-6.4,0-9.5,0c-0.5,0-1.1,0-1.6-0.1c-1.1-0.2-1.7-1-2-2
				c-0.1-0.6-0.2-1.2-0.2-1.8c0-4.6,0-9.2,0-13.8c0-0.8,0-0.9,0.9-0.8c0.6,0,1.3-0.2,1.6,0.1c0.4,0.4,0.1,1.1,0.1,1.6
				C145.1,73.6,145.1,75.7,145.1,77.8z"/>
			<path fill="#FFFFFF" d="M55.6,69.8c1-0.3,1.4,0.3,1.8,1.3c2,4.5,4,8.9,6.1,13.4c0.1,0.1,0.1,0.2,0.2,0.3c0.1,0.1,0.1,0.3,0.2,0.3
				c0.1,0,0.2-0.2,0.2-0.3c0.6-1.4,1.2-2.8,1.8-4.1c1.4-3.3,2.9-6.6,4.3-9.9c0.3-0.7,0.7-1.1,1.5-1c0.3,0.1,0.7,0,1,0
				c0.4,0,0.6,0.1,0.4,0.5c-0.5,1-0.9,2.1-1.4,3.1c-2.1,4.7-4.2,9.3-6.3,14c-0.3,0.7-0.7,1.1-1.5,1c-0.1,0-0.3,0-0.4,0
				c-0.6,0.1-0.9-0.2-1.2-0.7c-1.4-3.1-2.9-6.1-4.3-9.1c-1.2-2.6-2.5-5.2-3.7-7.8c-0.1-0.1-0.1-0.3-0.2-0.4
				c-0.2-0.3-0.1-0.5,0.3-0.5C54.8,69.8,55.1,69.8,55.6,69.8z"/>
			<path fill="#FFFFFF" d="M129.5,69.8c2.6,0,5.2,0,7.8,0c0.8,0,0.8,0,0.9,0.8c0,1.7,0,1.7-1.7,1.7c-1.6,0-3.3,0-4.9,0
				c-0.9,0-0.9,0-0.9,0.9c0,4.6,0,9.2,0,13.8c0,0.2,0,0.4,0,0.7c0.1,0.5-0.1,0.8-0.7,0.7c-0.4,0-0.8,0-1.1,0c-0.8,0-0.8,0-0.8-0.9
				c0-4.7,0-9.3,0-14c0-1.4,0.1-1.2-1.2-1.2c-1.8,0-3.6,0-5.4,0c-0.8,0-0.8,0-0.8-0.7c-0.1-1.8-0.1-1.8,1.7-1.8
				C124.8,69.8,127.1,69.8,129.5,69.8z"/>
			<path fill="#FFFFFF" d="M233.6,73c0,1.8-1.3,3.1-3,3.1c-1.7,0-3-1.4-3-3.2c0-1.8,1.4-3.2,3-3.1C232.4,69.7,233.6,71.1,233.6,73z
				 M228.1,72.9c0,1.4,1.2,2.7,2.5,2.7c1.4,0,2.6-1.2,2.6-2.7c0-1.5-1.2-2.7-2.6-2.7C229.3,70.2,228.1,71.5,228.1,72.9z"/>
			<path fill="#FFFFFF" d="M229.4,72.8c0-0.2,0-0.4,0-0.7c0-1.2-0.3-1.2,1.3-1.2c0.2,0,0.5,0,0.7,0.1c0.7,0.2,1,1,0.5,1.5
				c-0.5,0.5-0.4,0.9-0.1,1.4c0.1,0.2,0.5,0.5,0,0.7c-0.4,0.2-0.6-0.1-0.7-0.5c-0.1-0.3-0.3-0.6-0.4-0.9c-0.1-0.2-0.2-0.2-0.4-0.2
				c-0.2,0-0.2,0.2-0.2,0.4c0,0.3,0,0.6,0,0.8c0,0.2-0.2,0.3-0.4,0.3c-0.2,0-0.3-0.2-0.3-0.3C229.4,73.9,229.4,73.4,229.4,72.8
				C229.4,72.8,229.4,72.8,229.4,72.8z M230.7,72.6c0.4,0,0.7-0.1,0.8-0.5c0-0.4-0.4-0.6-0.9-0.6c-0.5,0-0.4,0.3-0.4,0.6
				C230.1,72.6,230.3,72.7,230.7,72.6z"/>
		</g>
	</g>
</g>
<g id="Layer_6" display="none">
	<g display="inline">
		<path id="e" fill="#FFFFFF" d="M79,43.4c-13.4,0-24.6,5.7-24.6,22.9c0,13.6,7.5,22.2,25,22.2c20.6,0,21.9-13.5,21.9-13.5h-10
			c0,0-2.1,7.3-12.5,7.3c-8.5,0-14.5-5.7-14.5-13.7h38.1v-5C102.2,55.7,97.2,43.4,79,43.4z M78.6,49.9c8.1,0,13.5,4.9,13.5,12.3
			H64.4C64.4,54.3,71.5,49.9,78.6,49.9z"/>
		<path id="b" fill="#FFFFFF" d="M102.2,26.8v53.2c0,3-0.2,7.3-0.2,7.3h9.5c0,0,0.3-3,0.3-5.8c0,0,4.7,7.3,17.5,7.3
			c13.4,0,22.6-9.3,22.6-22.7c0-12.4-8.4-22.4-22.5-22.4c-13.3,0-17.4,7.2-17.4,7.2v-24H102.2z M126.9,50.2
			c9.1,0,14.9,6.8,14.9,15.9c0,9.7-6.7,16.1-14.9,16.1c-9.7,0-15-7.6-15-16C111.9,58.2,116.6,50.2,126.9,50.2z"/>
		<path id="a" fill="#FFFFFF" d="M175.5,43.4c-20.2,0-21.5,11.1-21.5,12.8H164c0,0,0.5-6.5,10.8-6.5c6.6,0,11.8,3,11.8,8.9v2.1
			h-11.8c-15.7,0-24,4.6-24,13.9c0,9.2,7.7,14.1,18,14.1c14.1,0,18.6-7.8,18.6-7.8c0,3.1,0.2,6.2,0.2,6.2h8.9c0,0-0.3-3.8-0.3-6.2
			V60.1C196.3,46.3,185.2,43.4,175.5,43.4L175.5,43.4z M186.6,67.1v2.8c0,3.6-2.2,12.6-15.4,12.6c-7.2,0-10.3-3.6-10.3-7.8
			C160.9,67.1,171.3,67.1,186.6,67.1L186.6,67.1z"/>
		<path id="y" fill="#FFFFFF" d="M190.9,45.2h11.3l16.3,32.6l16.2-32.6h10.3l-29.5,58h-10.8l8.5-16.2L190.9,45.2z"/>
	</g>
</g>
</svg>
