<?xml version="1.0" encoding="utf-8"?>
<!-- Generator: Adobe Illustrator 18.1.0, SVG Export Plug-In . SVG Version: 6.00 Build 0)  -->
<svg version="1.2" baseProfile="tiny" id="Layer_1" xmlns="http://www.w3.org/2000/svg" xmlns:xlink="http://www.w3.org/1999/xlink"
	 x="0px" y="0px" viewBox="-117 119 64 64" xml:space="preserve">
<g>
	<polygon fill="#FFFFFF" points="-84.3,161 -67.3,143.9 -68.7,142.4 -85,158.6 -101.3,142.3 -102.7,143.9 -85.7,161 	"/>
	<path fill="#FFFFFF" d="M-85,183C-85,183-85,183-85,183c8.5,0,16.6-3.3,22.6-9.4S-53,159.5-53,151c0-8.5-3.3-16.6-9.4-22.6
		c-6-6-14.1-9.4-22.6-9.4c0,0,0,0,0,0c-8.5,0-16.6,3.3-22.6,9.4c-6,6-9.4,14.1-9.4,22.6c0,8.5,3.3,16.6,9.4,22.6
		C-101.6,179.7-93.5,183-85,183z M-106.2,129.8c5.7-5.7,13.2-8.8,21.2-8.8c0,0,0,0,0,0c8,0,15.5,3.1,21.2,8.8
		c5.7,5.7,8.8,13.2,8.8,21.2c0,8-3.1,15.5-8.8,21.2S-77,181-85,181h0c0,0,0,0,0,0c-8,0-15.5-3.1-21.2-8.8
		c-5.7-5.7-8.8-13.2-8.8-21.2C-115,143-111.9,135.5-106.2,129.8z"/>
</g>
</svg>
