<?xml version="1.0" encoding="utf-8"?>
<!-- Generator: Adobe Illustrator 18.1.0, SVG Export Plug-In . SVG Version: 6.00 Build 0)  -->
<!DOCTYPE svg PUBLIC "-//W3C//DTD SVG 1.1//EN" "http://www.w3.org/Graphics/SVG/1.1/DTD/svg11.dtd">
<svg version="1.1" id="Layer_1" xmlns="http://www.w3.org/2000/svg" xmlns:xlink="http://www.w3.org/1999/xlink" x="0px" y="0px"
	 viewBox="0 0 300 300" enable-background="new 0 0 300 300" xml:space="preserve">
<g>
	<g>
		<g>
			
				<rect x="63.6" y="148.4" transform="matrix(0.7097 0.7045 -0.7045 0.7097 149.1015 -61.972)" fill="#FFFFFF" width="172.3" height="3"/>
		</g>
	</g>
	<g>
		<g>
			
				<rect x="148.3" y="63.8" transform="matrix(0.7097 0.7045 -0.7045 0.7097 149.1536 -61.9926)" fill="#FFFFFF" width="3" height="172.3"/>
		</g>
	</g>
</g>
<g>
	<g>
		<path fill="#FFFFFF" d="M150,296.8C69.1,296.8,3.2,230.9,3.2,150C3.2,69.1,69.1,3.2,150,3.2c80.9,0,146.8,65.9,146.8,146.8
			C296.8,230.9,230.9,296.8,150,296.8z M150,6.2C70.7,6.2,6.2,70.7,6.2,150c0,79.3,64.5,143.8,143.8,143.8
			c79.3,0,143.8-64.5,143.8-143.8C293.8,70.7,229.3,6.2,150,6.2z"/>
	</g>
</g>
</svg>
